<?xml version="1.0" encoding="UTF-8" standalone="no"?>
<!-- Created with Inkscape (http://www.inkscape.org/) -->

<svg
   xmlns:dc="http://purl.org/dc/elements/1.1/"
   xmlns:cc="http://creativecommons.org/ns#"
   xmlns:rdf="http://www.w3.org/1999/02/22-rdf-syntax-ns#"
   xmlns:svg="http://www.w3.org/2000/svg"
   xmlns="http://www.w3.org/2000/svg"
   xmlns:sodipodi="http://sodipodi.sourceforge.net/DTD/sodipodi-0.dtd"
   xmlns:inkscape="http://www.inkscape.org/namespaces/inkscape"
   width="128"
   height="128"
   id="svg5637"
   version="1.1"
   inkscape:version="0.48.4 r9939"
   sodipodi:docname="New document 22">
  <defs
     id="defs5639" />
  <sodipodi:namedview
     id="base"
     pagecolor="#ffffff"
     bordercolor="#666666"
     borderopacity="1.0"
     inkscape:pageopacity="0.0"
     inkscape:pageshadow="2"
     inkscape:zoom="5.5"
     inkscape:cx="73.43963"
     inkscape:cy="68.369211"
     inkscape:current-layer="layer1"
     showgrid="true"
     inkscape:document-units="px"
     inkscape:grid-bbox="true"
     inkscape:snap-bbox="true"
     inkscape:snap-page="true"
     inkscape:window-width="1454"
     inkscape:window-height="1010"
     inkscape:window-x="0"
     inkscape:window-y="24"
     inkscape:window-maximized="0" />
  <metadata
     id="metadata5642">
    <rdf:RDF>
      <cc:Work
         rdf:about="">
        <dc:format>image/svg+xml</dc:format>
        <dc:type
           rdf:resource="http://purl.org/dc/dcmitype/StillImage" />
        <dc:title></dc:title>
      </cc:Work>
    </rdf:RDF>
  </metadata>
  <g
     id="layer1"
     inkscape:label="Layer 1"
     inkscape:groupmode="layer"
     transform="translate(0,64)">
    <rect
       style="fill:#dedede;fill-opacity:1;fill-rule:nonzero;stroke:none"
       id="rect6162"
       width="128"
       height="128"
       x="0"
       y="0"
       transform="translate(0,-64)" />
    <path
       inkscape:connector-curvature="0"
       d="M 97.248787,35.560734 C 81.849023,29.950268 76.927289,25.191044 76.927289,15.053511 c 0,-6.0747817 4.697315,-4.101445 6.759645,-15.24499273 0.862851,-4.60445197 5.014597,-0.07739 5.81167,-10.64054127 0,-4.17883 -2.275141,-5.223538 -2.275141,-5.223538 0,0 1.164656,-6.229553 1.613493,-11.027469 0.549439,-5.997396 -3.447535,-21.39716 -24.836957,-21.39716 -21.385552,0 -25.398003,15.399764 -24.836956,21.39716 0.448837,4.797916 1.613493,11.027469 1.613493,11.027469 0,0 -2.275141,1.044708 -2.275141,5.223538 0.797073,10.56315527 4.948818,6.0360893 5.81167,10.64054127 2.06233,11.14354773 6.763514,9.17021103 6.763514,15.24499273 0,10.137533 -4.925603,14.896757 -20.325367,20.507223 C 15.289539,41.209894 5.2487382,46.93644 5.2487382,50.84442 c 0,3.90798 0,13.15558 0,13.15558 L 122.75126,64 c 0,0 0,-9.2476 0,-13.15558 0,-3.90798 -10.0408,-9.634526 -25.502473,-15.283686"
       style="fill:#ffffff;fill-opacity:1;fill-rule:nonzero;stroke:none"
       id="path118" />
  </g>
</svg>
