<?xml version="1.0" encoding="UTF-8" standalone="no"?>
<!-- Created with Inkscape (http://www.inkscape.org/) -->

<svg
   xmlns:dc="http://purl.org/dc/elements/1.1/"
   xmlns:cc="http://creativecommons.org/ns#"
   xmlns:rdf="http://www.w3.org/1999/02/22-rdf-syntax-ns#"
   xmlns:svg="http://www.w3.org/2000/svg"
   xmlns="http://www.w3.org/2000/svg"
   xmlns:sodipodi="http://sodipodi.sourceforge.net/DTD/sodipodi-0.dtd"
   xmlns:inkscape="http://www.inkscape.org/namespaces/inkscape"
   width="40"
   height="40"
   id="svg5637"
   version="1.1"
   inkscape:version="0.48.4 r9939"
   sodipodi:docname="nophoto.svg"
   inkscape:export-filename="/home/eirik/nordic-devzone/askbot/media/images/nophoto.png"
   inkscape:export-xdpi="90"
   inkscape:export-ydpi="90">
  <defs
     id="defs5639" />
  <sodipodi:namedview
     id="base"
     pagecolor="#ffffff"
     bordercolor="#666666"
     borderopacity="1.0"
     inkscape:pageopacity="0.0"
     inkscape:pageshadow="2"
     inkscape:zoom="15.556349"
     inkscape:cx="15.652814"
     inkscape:cy="7.4662076"
     inkscape:current-layer="layer1"
     showgrid="true"
     inkscape:document-units="px"
     inkscape:grid-bbox="true"
     inkscape:snap-bbox="true"
     inkscape:snap-page="true"
     inkscape:window-width="1454"
     inkscape:window-height="1010"
     inkscape:window-x="0"
     inkscape:window-y="24"
     inkscape:window-maximized="0" />
  <metadata
     id="metadata5642">
    <rdf:RDF>
      <cc:Work
         rdf:about="">
        <dc:format>image/svg+xml</dc:format>
        <dc:type
           rdf:resource="http://purl.org/dc/dcmitype/StillImage" />
        <dc:title></dc:title>
      </cc:Work>
    </rdf:RDF>
  </metadata>
  <g
     id="layer1"
     inkscape:label="Layer 1"
     inkscape:groupmode="layer"
     transform="translate(0,-24)">
    <path
       inkscape:connector-curvature="0"
       d="m 4.8209581,39.657143 c 0,-5.987015 4.8554385,-10.845588 10.8408869,-10.845588 5.988583,0 11.325177,5.34443 11.325177,11.331445 0,5.987016 -4.855438,10.845589 -10.845589,10.845589 -5.983881,0 -11.3204749,-5.34443 -11.3204749,-11.331446 z M 39.098974,57.837611 29.533855,48.261519 C 30.977321,45.894924 31.80798,43.120836 31.80798,40.143 31.80798,31.491606 24.31324,24 15.661845,24 7.0135854,24 0,31.005749 0,39.657143 c 0,8.651395 7.4947407,16.142999 16.141433,16.142999 2.875962,0 5.570119,-0.783639 7.889696,-2.131501 l 9.619974,9.62311 c 0.935668,0.940368 2.465334,0.940368 3.407271,0 l 2.383835,-2.382269 c 0.941936,-0.940368 0.598701,-2.131503 -0.343235,-3.071871"
       style="fill:#626366;fill-opacity:1;fill-rule:nonzero;stroke:none"
       id="path196" />
  </g>
</svg>
